<svg xmlns="http://www.w3.org/2000/svg" viewBox="0 0 512 512"><rect width="512" height="512" rx="96" fill="#08120c"/><circle cx="256" cy="256" r="190" fill="#edf3ee"/><circle cx="256" cy="256" r="150" fill="#1b4a2e"/><g fill="#6fb86a"><ellipse cx="256" cy="186" rx="58" ry="88"/><ellipse cx="320" cy="224" rx="58" ry="88" transform="rotate(60 320 224)"/><ellipse cx="320" cy="298" rx="58" ry="88" transform="rotate(120 320 298)"/><ellipse cx="256" cy="326" rx="58" ry="88"/><ellipse cx="192" cy="298" rx="58" ry="88" transform="rotate(60 192 298)"/><ellipse cx="192" cy="224" rx="58" ry="88" transform="rotate(120 192 224)"/></g><circle cx="256" cy="256" r="46" fill="#a6d67a"/><g fill="#dbb056"><ellipse cx="210" cy="343" rx="13" ry="9"/><ellipse cx="248" cy="356" rx="13" ry="9"/><ellipse cx="286" cy="343" rx="13" ry="9"/><ellipse cx="320" cy="318" rx="13" ry="9"/></g></svg>
